<svg width="300" height="300" viewBox="0 0 300 300" fill="none" xmlns="http://www.w3.org/2000/svg">
<g id="Frame 1">
<circle id="circle base" cx="149.5" cy="153.5" r="120.5" fill="#C4C4C4"/>
<g id="DocsGroup">
<rect id="Doc1" x="119" y="65" width="58" height="76" fill="#FFFEFE"/>
<rect id="Doc2" x="121" y="67" width="58" height="76" fill="#F3F3F3"/>
<rect id="Doc3" x="123" y="69" width="58" height="76" fill="#EBEBEB"/>
<path id="Documents" d="M129.06 74.6C129.06 74.26 129.013 74.01 128.92 73.85C128.827 73.6833 128.64 73.6 128.36 73.6H128.16V73.4H130.78C132.073 73.4 133.05 73.6867 133.71 74.26C134.377 74.8333 134.71 75.6333 134.71 76.66C134.71 77.32 134.57 77.9033 134.29 78.41C134.01 78.91 133.593 79.3 133.04 79.58C132.493 79.86 131.827 80 131.04 80H129.06V74.6ZM131.01 79.65C131.503 79.65 131.947 79.53 132.34 79.29C132.74 79.0433 133.053 78.7 133.28 78.26C133.507 77.8133 133.62 77.2933 133.62 76.7C133.62 76.12 133.507 75.6067 133.28 75.16C133.06 74.7133 132.75 74.3667 132.35 74.12C131.95 73.8733 131.497 73.75 130.99 73.75C130.67 73.75 130.337 73.8033 129.99 73.91V79.52C130.363 79.6067 130.703 79.65 131.01 79.65ZM137.798 80.1C137.345 80.1 136.952 79.9933 136.618 79.78C136.285 79.56 136.032 79.2633 135.858 78.89C135.685 78.5167 135.598 78.1033 135.598 77.65C135.598 77.1967 135.685 76.7833 135.858 76.41C136.032 76.0367 136.285 75.7433 136.618 75.53C136.952 75.31 137.345 75.2 137.798 75.2C138.252 75.2 138.645 75.31 138.978 75.53C139.312 75.7433 139.565 76.0367 139.738 76.41C139.912 76.7833 139.998 77.1967 139.998 77.65C139.998 78.1033 139.912 78.5167 139.738 78.89C139.565 79.2633 139.312 79.56 138.978 79.78C138.645 79.9933 138.252 80.1 137.798 80.1ZM137.798 79.7C138.045 79.7 138.262 79.61 138.448 79.43C138.642 79.25 138.788 79.0033 138.888 78.69C138.995 78.3767 139.048 78.03 139.048 77.65C139.048 77.27 138.995 76.9233 138.888 76.61C138.788 76.2967 138.642 76.05 138.448 75.87C138.262 75.69 138.045 75.6 137.798 75.6C137.552 75.6 137.332 75.69 137.138 75.87C136.952 76.05 136.805 76.2967 136.698 76.61C136.598 76.9233 136.548 77.27 136.548 77.65C136.548 78.03 136.598 78.3767 136.698 78.69C136.805 79.0033 136.952 79.25 137.138 79.43C137.332 79.61 137.552 79.7 137.798 79.7ZM143.101 80.1C142.621 80.1 142.215 79.9933 141.881 79.78C141.555 79.56 141.308 79.2667 141.141 78.9C140.981 78.5267 140.901 78.11 140.901 77.65C140.901 77.19 140.981 76.7767 141.141 76.41C141.308 76.0367 141.555 75.7433 141.881 75.53C142.215 75.31 142.621 75.2 143.101 75.2C143.835 75.2 144.318 75.3167 144.551 75.55C144.665 75.6633 144.735 75.8033 144.761 75.97C144.788 76.13 144.801 76.4233 144.801 76.85H144.601C144.575 76.4367 144.445 76.1267 144.211 75.92C143.978 75.7067 143.675 75.6 143.301 75.6C142.821 75.6 142.458 75.79 142.211 76.17C141.971 76.55 141.851 77.0433 141.851 77.65C141.851 78.2567 141.971 78.75 142.211 79.13C142.458 79.51 142.821 79.7 143.301 79.7C143.641 79.7 143.921 79.6367 144.141 79.51C144.361 79.3767 144.565 79.1733 144.751 78.9L144.951 79.05C144.731 79.4233 144.471 79.6933 144.171 79.86C143.871 80.02 143.515 80.1 143.101 80.1ZM147.715 80.1C147.215 80.1 146.805 79.9667 146.485 79.7C146.172 79.4333 146.015 78.9667 146.015 78.3V76.5C146.015 76.16 145.968 75.91 145.875 75.75C145.782 75.5833 145.595 75.5 145.315 75.5H145.215V75.3H146.015C146.262 75.3 146.445 75.3333 146.565 75.4C146.692 75.46 146.782 75.5733 146.835 75.74C146.888 75.9067 146.915 76.16 146.915 76.5V78.3C146.915 78.7667 147.018 79.11 147.225 79.33C147.438 79.5433 147.702 79.65 148.015 79.65C148.368 79.65 148.702 79.4733 149.015 79.12V75.3H149.915V80H149.415L149.065 79.6H149.015C148.875 79.74 148.692 79.86 148.465 79.96C148.245 80.0533 147.995 80.1 147.715 80.1ZM151.507 76.5C151.507 76.16 151.46 75.91 151.367 75.75C151.273 75.5833 151.087 75.5 150.807 75.5H150.607V75.3H151.507C151.753 75.3 151.94 75.3333 152.067 75.4C152.2 75.4667 152.297 75.5667 152.357 75.7H152.407C152.547 75.56 152.727 75.4433 152.947 75.35C153.173 75.25 153.427 75.2 153.707 75.2C153.987 75.2 154.227 75.2533 154.427 75.36C154.627 75.46 154.787 75.64 154.907 75.9C155.08 75.68 155.3 75.51 155.567 75.39C155.84 75.2633 156.12 75.2 156.407 75.2C156.833 75.2 157.173 75.3333 157.427 75.6C157.68 75.8667 157.807 76.3333 157.807 77V80H156.907V77C156.907 76.52 156.84 76.1767 156.707 75.97C156.573 75.7567 156.373 75.65 156.107 75.65C155.92 75.65 155.723 75.72 155.517 75.86C155.31 75.9933 155.157 76.14 155.057 76.3C155.09 76.4 155.107 76.6333 155.107 77V80H154.207V77C154.207 76.52 154.14 76.1767 154.007 75.97C153.873 75.7567 153.673 75.65 153.407 75.65C153.053 75.65 152.72 75.8267 152.407 76.18V80H151.507V76.5ZM161.038 80.1C160.585 80.1 160.202 79.9933 159.888 79.78C159.575 79.56 159.338 79.2667 159.178 78.9C159.018 78.5267 158.938 78.11 158.938 77.65C158.938 77.1967 159.018 76.7833 159.178 76.41C159.338 76.0367 159.568 75.7433 159.868 75.53C160.175 75.31 160.532 75.2 160.938 75.2C161.612 75.2 162.112 75.39 162.438 75.77C162.772 76.1433 162.938 76.6867 162.938 77.4L162.918 77.8H159.888C159.888 78.36 160.008 78.8167 160.248 79.17C160.488 79.5233 160.818 79.7 161.238 79.7C161.552 79.7 161.815 79.6333 162.028 79.5C162.248 79.3667 162.452 79.1667 162.638 78.9L162.838 79.05C162.618 79.4167 162.362 79.6833 162.068 79.85C161.775 80.0167 161.432 80.1 161.038 80.1ZM161.988 77.4C161.988 76.8133 161.902 76.3667 161.728 76.06C161.555 75.7533 161.292 75.6 160.938 75.6C160.738 75.6 160.558 75.68 160.398 75.84C160.238 75.9933 160.112 76.2067 160.018 76.48C159.932 76.7533 159.888 77.06 159.888 77.4H161.988ZM164.241 76.5C164.241 76.16 164.194 75.91 164.101 75.75C164.008 75.5833 163.821 75.5 163.541 75.5H163.341V75.3H164.241C164.488 75.3 164.674 75.3333 164.801 75.4C164.934 75.4667 165.031 75.5667 165.091 75.7H165.141C165.281 75.56 165.461 75.4433 165.681 75.35C165.908 75.25 166.161 75.2 166.441 75.2C166.941 75.2 167.348 75.3333 167.661 75.6C167.981 75.8667 168.141 76.3333 168.141 77V80H167.241V77C167.241 76.5333 167.134 76.1933 166.921 75.98C166.714 75.76 166.454 75.65 166.141 75.65C165.788 75.65 165.454 75.8267 165.141 76.18V80H164.241V76.5ZM170.921 80.1C170.547 80.1 170.254 79.9933 170.041 79.78C169.827 79.5667 169.721 79.24 169.721 78.8V75.7H169.021V75.3H169.721V74.4L170.221 73.8H170.621V75.3H171.821V75.7H170.621V78.8C170.621 79.4 170.854 79.7 171.321 79.7C171.481 79.7 171.614 79.6833 171.721 79.65C171.834 79.6167 171.951 79.5667 172.071 79.5L172.171 79.7C172.017 79.8133 171.847 79.91 171.661 79.99C171.474 80.0633 171.227 80.1 170.921 80.1ZM174.479 80.1C173.713 80.1 173.196 79.9667 172.929 79.7C172.816 79.5867 172.746 79.46 172.719 79.32C172.693 79.1733 172.679 78.95 172.679 78.65H172.879C172.939 78.9833 173.083 79.2433 173.309 79.43C173.543 79.61 173.866 79.7 174.279 79.7C174.646 79.7 174.919 79.6367 175.099 79.51C175.286 79.3833 175.379 79.2133 175.379 79C175.379 78.8067 175.306 78.64 175.159 78.5C175.019 78.36 174.793 78.2267 174.479 78.1L173.879 77.85C173.479 77.69 173.179 77.5033 172.979 77.29C172.779 77.0767 172.679 76.8133 172.679 76.5C172.679 76.0933 172.833 75.7767 173.139 75.55C173.446 75.3167 173.843 75.2 174.329 75.2C175.063 75.2 175.563 75.3333 175.829 75.6C175.943 75.7133 176.013 75.84 176.039 75.98C176.066 76.12 176.079 76.3433 176.079 76.65H175.879C175.826 76.3167 175.686 76.06 175.459 75.88C175.233 75.6933 174.923 75.6 174.529 75.6C174.216 75.6 173.969 75.6667 173.789 75.8C173.616 75.9267 173.529 76.0933 173.529 76.3C173.529 76.6467 173.796 76.93 174.329 77.15L174.929 77.4C175.383 77.5867 175.713 77.7867 175.919 78C176.126 78.2067 176.229 78.4733 176.229 78.8C176.229 79.2067 176.066 79.5267 175.739 79.76C175.413 79.9867 174.993 80.1 174.479 80.1Z" fill="black"/>
</g>
<g id="IDGroup">
<rect id="ID base" x="77.5" y="152.5" width="72" height="46" rx="1.5" fill="#FFF8E4" stroke="white"/>
<g id="photo  group">
<rect id="ID photo base" x="84" y="160" width="22" height="29" rx="2" fill="#72BBFF"/>
<g id="person">
<circle id="head" cx="95" cy="169" r="5" fill="#C4C4C4"/>
<rect id="body" x="89" y="174" width="12" height="13" rx="2" fill="#C4C4C4"/>
</g>
</g>
<g id="small person">
<circle id="head_2" cx="128.5" cy="181.917" r="2.91667" fill="#C4C4C4" fill-opacity="0.5"/>
<rect id="body_2" x="125" y="184.833" width="7" height="7.58333" rx="2" fill="#C4C4C4" fill-opacity="0.5"/>
</g>
<path id="signature" d="M87.2803 196.314C87.2917 196.385 87.3122 196.457 87.3418 196.53C87.3737 196.603 87.4159 196.669 87.4683 196.728C87.5207 196.79 87.5856 196.84 87.6631 196.878C87.7428 196.917 87.8363 196.937 87.9434 196.937C88.1074 196.937 88.2441 196.886 88.3535 196.786C88.4652 196.686 88.5563 196.549 88.627 196.376C88.6999 196.203 88.7568 196.001 88.7979 195.771C88.8389 195.539 88.8719 195.29 88.897 195.026C88.8127 195.056 88.7238 195.079 88.6304 195.098C88.5369 195.116 88.439 195.125 88.3364 195.125C88.145 195.125 87.9673 195.099 87.8032 195.046C87.6392 194.994 87.4979 194.917 87.3794 194.814C87.2609 194.711 87.1675 194.586 87.0991 194.438C87.033 194.288 87 194.116 87 193.922C87 193.703 87.0353 193.506 87.106 193.331C87.1766 193.153 87.27 192.993 87.3862 192.852C87.5047 192.708 87.6403 192.582 87.793 192.473C87.9479 192.361 88.1086 192.261 88.2749 192.172C88.4412 192.083 88.6076 192.004 88.7739 191.936C88.9425 191.868 89.0998 191.804 89.2456 191.745C89.3162 191.537 89.4074 191.372 89.519 191.249C89.6307 191.126 89.7754 191.064 89.9531 191.064C89.9714 191.064 89.993 191.067 90.0181 191.071C90.0431 191.076 90.0671 191.086 90.0898 191.102C90.1149 191.116 90.1354 191.137 90.1514 191.167C90.1696 191.194 90.1787 191.231 90.1787 191.276C90.1787 191.352 90.1571 191.419 90.1138 191.478C90.0705 191.537 90.0112 191.592 89.936 191.642C89.8608 191.69 89.772 191.736 89.6694 191.779C89.5669 191.822 89.4564 191.864 89.3379 191.905C89.3105 192.092 89.29 192.301 89.2764 192.531C89.2627 192.761 89.2502 193.002 89.2388 193.255C89.2297 193.506 89.2183 193.764 89.2046 194.028C89.1909 194.292 89.1727 194.551 89.1499 194.804C89.2935 194.74 89.4131 194.666 89.5088 194.582C89.6045 194.497 89.6922 194.42 89.772 194.349L89.8198 194.397C89.7925 194.424 89.7572 194.458 89.7139 194.5C89.6729 194.541 89.6227 194.585 89.5635 194.633C89.5065 194.681 89.4416 194.731 89.3687 194.783C89.298 194.833 89.2205 194.88 89.1362 194.923C89.1043 195.22 89.0599 195.5 89.0029 195.764C88.9482 196.026 88.8719 196.256 88.7739 196.455C88.6782 196.653 88.5575 196.81 88.4116 196.926C88.2658 197.042 88.0869 197.101 87.875 197.101C87.777 197.101 87.679 197.083 87.5811 197.049C87.4831 197.015 87.3953 196.966 87.3179 196.902C87.2404 196.841 87.1766 196.764 87.1265 196.673C87.0786 196.584 87.0547 196.484 87.0547 196.373C87.0547 196.345 87.0615 196.32 87.0752 196.297C87.0889 196.277 87.106 196.259 87.1265 196.243C87.1493 196.229 87.1732 196.218 87.1982 196.208C87.2256 196.199 87.2529 196.195 87.2803 196.195C87.2985 196.195 87.3076 196.205 87.3076 196.226C87.3076 196.237 87.3031 196.25 87.2939 196.263C87.2848 196.279 87.2803 196.296 87.2803 196.314ZM88.4219 194.944C88.6042 194.944 88.7671 194.924 88.9106 194.886C88.9312 194.637 88.9471 194.381 88.9585 194.117C88.9722 193.852 88.987 193.593 89.0029 193.337C89.0212 193.082 89.0439 192.837 89.0713 192.603C89.0986 192.366 89.1362 192.149 89.1841 191.953C89.0405 192.001 88.8924 192.052 88.7397 192.107C88.5871 192.159 88.4378 192.22 88.292 192.288C88.1462 192.354 88.0072 192.431 87.875 192.517C87.7451 192.604 87.6312 192.704 87.5332 192.818C87.4352 192.932 87.3577 193.063 87.3008 193.211C87.2438 193.357 87.2153 193.523 87.2153 193.71C87.2153 193.888 87.2336 194.042 87.27 194.171C87.3065 194.301 87.3555 194.412 87.417 194.503C87.4808 194.594 87.5526 194.669 87.6323 194.729C87.7144 194.785 87.7998 194.83 87.8887 194.862C87.9798 194.894 88.071 194.915 88.1621 194.927C88.2533 194.938 88.3398 194.944 88.4219 194.944ZM89.8779 191.225C89.8255 191.225 89.7743 191.234 89.7241 191.252C89.674 191.268 89.6261 191.295 89.5806 191.331C89.5373 191.368 89.4974 191.415 89.4609 191.475C89.4268 191.532 89.3994 191.602 89.3789 191.687C89.4632 191.652 89.5407 191.619 89.6113 191.587C89.6842 191.556 89.7458 191.524 89.7959 191.492C89.8483 191.46 89.8882 191.428 89.9155 191.396C89.9451 191.364 89.96 191.331 89.96 191.297C89.96 191.283 89.9531 191.268 89.9395 191.252C89.9258 191.234 89.9053 191.225 89.8779 191.225ZM90.4282 195.785C90.4829 195.785 90.5365 195.773 90.5889 195.75C90.6413 195.725 90.688 195.69 90.729 195.645C90.77 195.597 90.8019 195.539 90.8247 195.47C90.8498 195.402 90.8623 195.322 90.8623 195.231C90.8623 195.156 90.8532 195.085 90.835 195.019C90.8167 194.951 90.7894 194.891 90.7529 194.841C90.7188 194.791 90.6732 194.751 90.6162 194.722C90.5615 194.692 90.4966 194.677 90.4214 194.677C90.369 194.677 90.3166 194.688 90.2642 194.708C90.2118 194.726 90.165 194.757 90.124 194.8C90.083 194.841 90.05 194.895 90.0249 194.961C89.9998 195.025 89.9873 195.102 89.9873 195.193C89.9873 195.266 89.9964 195.338 90.0146 195.409C90.0329 195.477 90.0591 195.54 90.0933 195.597C90.1297 195.654 90.1753 195.699 90.23 195.733C90.2869 195.768 90.353 195.785 90.4282 195.785ZM90.3086 195.959C90.1582 195.959 90.0352 195.91 89.9395 195.812C89.8438 195.712 89.7959 195.567 89.7959 195.378C89.7959 195.25 89.8198 195.133 89.8677 195.026C89.9155 194.917 89.9771 194.823 90.0522 194.746C90.1297 194.666 90.2152 194.604 90.3086 194.561C90.402 194.518 90.4932 194.496 90.582 194.496C90.7256 194.496 90.8407 194.545 90.9272 194.643C91.0138 194.741 91.0571 194.886 91.0571 195.077C91.0571 195.205 91.0343 195.322 90.9888 195.429C90.9455 195.536 90.8874 195.63 90.8145 195.709C90.7438 195.787 90.6641 195.848 90.5752 195.894C90.4863 195.937 90.3975 195.959 90.3086 195.959ZM91.4126 195.48C91.4126 195.421 91.416 195.326 91.4229 195.193C91.4297 195.059 91.4377 194.889 91.4468 194.684C91.4559 194.479 91.4639 194.24 91.4707 193.966C91.4775 193.693 91.481 193.386 91.481 193.047C91.481 192.881 91.4798 192.721 91.4775 192.568C91.4775 192.413 91.4764 192.277 91.4741 192.158C91.4718 192.037 91.4696 191.941 91.4673 191.868C91.4673 191.792 91.4673 191.751 91.4673 191.745C91.4673 191.726 91.4696 191.71 91.4741 191.697C91.481 191.683 91.4935 191.671 91.5117 191.659C91.5254 191.652 91.5413 191.643 91.5596 191.632C91.5801 191.618 91.6006 191.611 91.6211 191.611C91.6462 191.611 91.6655 191.618 91.6792 191.632C91.6929 191.643 91.7031 191.665 91.71 191.697C91.7191 191.726 91.7259 191.779 91.7305 191.854C91.735 191.927 91.7373 192.029 91.7373 192.162C91.7396 192.292 91.7407 192.46 91.7407 192.667C91.7407 192.859 91.7362 193.057 91.7271 193.262C91.7179 193.467 91.7065 193.669 91.6929 193.867C91.6815 194.065 91.6678 194.256 91.6519 194.438C91.6382 194.62 91.6245 194.784 91.6108 194.93C91.5994 195.076 91.5892 195.198 91.5801 195.296C91.571 195.392 91.5664 195.453 91.5664 195.48C91.5664 195.492 91.5664 195.506 91.5664 195.521C91.5664 195.537 91.5675 195.553 91.5698 195.569C91.5721 195.583 91.5755 195.596 91.5801 195.607C91.5846 195.616 91.5915 195.621 91.6006 195.621C91.6234 195.621 91.6473 195.584 91.6724 195.511C91.6974 195.438 91.7293 195.34 91.7681 195.217C91.7931 195.14 91.8216 195.061 91.8535 194.981C91.8854 194.902 91.9185 194.83 91.9526 194.766C91.9891 194.7 92.0256 194.646 92.062 194.605C92.1007 194.564 92.1383 194.544 92.1748 194.544C92.2021 194.544 92.2249 194.552 92.2432 194.568C92.2637 194.584 92.2808 194.604 92.2944 194.629C92.3081 194.652 92.3184 194.677 92.3252 194.705C92.332 194.732 92.3377 194.758 92.3423 194.783C92.3446 194.811 92.348 194.852 92.3525 194.906C92.3571 194.961 92.3617 195.024 92.3662 195.094C92.3708 195.165 92.3753 195.239 92.3799 195.316C92.3867 195.394 92.3936 195.468 92.4004 195.539C92.4118 195.666 92.4425 195.758 92.4927 195.815C92.5428 195.872 92.6077 195.901 92.6875 195.901C92.7194 195.901 92.7445 195.899 92.7627 195.894C92.7809 195.889 92.798 195.887 92.814 195.887C92.8254 195.887 92.8276 195.899 92.8208 195.921C92.8162 195.931 92.7969 195.946 92.7627 195.969C92.7285 195.99 92.6681 196 92.5815 196C92.5086 196 92.4471 195.989 92.397 195.966C92.3491 195.941 92.3104 195.903 92.2808 195.853C92.2534 195.801 92.2318 195.733 92.2158 195.651C92.2021 195.567 92.193 195.467 92.1885 195.351C92.1839 195.285 92.1794 195.216 92.1748 195.146C92.1725 195.073 92.1668 195.007 92.1577 194.947C92.1509 194.888 92.1406 194.84 92.127 194.804C92.1133 194.765 92.0939 194.746 92.0688 194.746C92.0483 194.746 92.0256 194.77 92.0005 194.817C91.9754 194.863 91.9504 194.918 91.9253 194.981C91.9025 195.043 91.8809 195.106 91.8604 195.169C91.8398 195.231 91.8239 195.279 91.8125 195.313C91.8034 195.34 91.7897 195.386 91.7715 195.45C91.7533 195.514 91.7316 195.578 91.7065 195.645C91.6815 195.711 91.6541 195.769 91.6245 195.819C91.5949 195.869 91.5641 195.894 91.5322 195.894C91.5049 195.894 91.4832 195.879 91.4673 195.85C91.4513 195.818 91.4388 195.78 91.4297 195.737C91.4229 195.691 91.4183 195.646 91.416 195.6C91.4137 195.552 91.4126 195.512 91.4126 195.48ZM93.0498 194.476C93.0612 194.476 93.0703 194.485 93.0771 194.503C93.084 194.521 93.0885 194.543 93.0908 194.568C93.0954 194.593 93.0977 194.62 93.0977 194.65C93.0977 194.677 93.0977 194.702 93.0977 194.725C93.0977 194.784 93.0954 194.846 93.0908 194.91C93.0885 194.971 93.0851 195.032 93.0806 195.091C93.0783 195.148 93.076 195.201 93.0737 195.251C93.0715 195.299 93.0703 195.339 93.0703 195.371C93.0703 195.43 93.0726 195.478 93.0771 195.515C93.0817 195.549 93.0931 195.566 93.1113 195.566C93.1227 195.566 93.1375 195.551 93.1558 195.521C93.174 195.492 93.1934 195.457 93.2139 195.416C93.2367 195.372 93.2583 195.327 93.2788 195.279C93.2993 195.231 93.3187 195.189 93.3369 195.152C93.3597 195.104 93.3848 195.052 93.4121 194.995C93.4417 194.936 93.4725 194.881 93.5044 194.831C93.5363 194.779 93.5693 194.735 93.6035 194.701C93.64 194.667 93.6776 194.65 93.7163 194.65C93.7414 194.65 93.763 194.657 93.7812 194.67C93.8018 194.684 93.8188 194.702 93.8325 194.725C93.8462 194.746 93.8564 194.768 93.8633 194.793C93.8724 194.816 93.8792 194.838 93.8838 194.858C93.8906 194.911 93.8975 194.994 93.9043 195.108C93.9134 195.22 93.9248 195.339 93.9385 195.467C93.9499 195.594 93.9806 195.688 94.0308 195.747C94.0809 195.804 94.1458 195.833 94.2256 195.833C94.2575 195.833 94.2826 195.83 94.3008 195.826C94.3213 195.821 94.3384 195.819 94.3521 195.819C94.3634 195.819 94.3657 195.83 94.3589 195.853C94.3566 195.858 94.3509 195.864 94.3418 195.874C94.335 195.88 94.3224 195.888 94.3042 195.897C94.286 195.907 94.2609 195.915 94.229 195.921C94.1994 195.928 94.1629 195.932 94.1196 195.932C94.0467 195.932 93.9863 195.92 93.9385 195.897C93.8906 195.872 93.8519 195.834 93.8223 195.781C93.7926 195.729 93.771 195.662 93.7573 195.58C93.7437 195.495 93.7345 195.395 93.73 195.279C93.7254 195.224 93.7209 195.172 93.7163 195.122C93.714 195.069 93.7083 195.024 93.6992 194.985C93.6924 194.944 93.6821 194.912 93.6685 194.889C93.6548 194.864 93.6354 194.852 93.6104 194.852C93.5898 194.852 93.5648 194.872 93.5352 194.913C93.5078 194.954 93.4805 195.003 93.4531 195.06C93.4258 195.115 93.3996 195.172 93.3745 195.231C93.3517 195.29 93.3324 195.337 93.3164 195.371C93.2663 195.478 93.2241 195.566 93.1899 195.634C93.158 195.703 93.1227 195.769 93.084 195.833C93.0726 195.851 93.0601 195.866 93.0464 195.877C93.035 195.888 93.0202 195.894 93.002 195.894C92.9746 195.894 92.953 195.871 92.937 195.826C92.9211 195.78 92.9085 195.728 92.8994 195.668C92.8926 195.609 92.888 195.55 92.8857 195.491C92.8835 195.429 92.8823 195.382 92.8823 195.351C92.8823 195.314 92.8823 195.27 92.8823 195.217C92.8846 195.165 92.8869 195.114 92.8892 195.063C92.8914 195.013 92.8926 194.968 92.8926 194.927C92.8949 194.886 92.896 194.858 92.896 194.845C92.896 194.831 92.8949 194.813 92.8926 194.79C92.8926 194.765 92.8926 194.741 92.8926 194.718C92.8926 194.693 92.8914 194.672 92.8892 194.653C92.8892 194.633 92.8892 194.619 92.8892 194.612C92.8892 194.594 92.8937 194.579 92.9028 194.568C92.9142 194.554 92.9256 194.544 92.937 194.537C92.9484 194.53 92.9666 194.519 92.9917 194.503C93.0168 194.485 93.0361 194.476 93.0498 194.476ZM97.647 194.804C97.647 194.744 97.647 194.682 97.647 194.616C97.647 194.547 97.6493 194.477 97.6538 194.404C97.5763 194.429 97.492 194.448 97.4009 194.462C97.312 194.476 97.2186 194.482 97.1206 194.482C96.8494 194.482 96.6125 194.438 96.4097 194.349C96.2091 194.26 96.0417 194.142 95.9072 193.994C95.7728 193.843 95.6714 193.67 95.603 193.474C95.5369 193.278 95.5039 193.072 95.5039 192.855C95.5039 192.632 95.5369 192.425 95.603 192.233C95.6691 192.04 95.7591 191.863 95.873 191.704C95.9893 191.544 96.126 191.403 96.2832 191.28C96.4427 191.154 96.6136 191.05 96.7959 190.965C96.9782 190.879 97.1685 190.814 97.3667 190.771C97.5672 190.725 97.7677 190.702 97.9683 190.702C98.3237 190.702 98.6462 190.757 98.9355 190.866C99.2249 190.976 99.4722 191.136 99.6772 191.348C99.8823 191.558 100.041 191.818 100.152 192.127C100.264 192.435 100.32 192.788 100.32 193.187C100.32 193.365 100.306 193.562 100.279 193.778C100.254 193.995 100.213 194.214 100.156 194.435C100.099 194.656 100.025 194.871 99.9336 195.081C99.8424 195.288 99.7308 195.474 99.5986 195.638C99.4688 195.799 99.3184 195.929 99.1475 196.027C98.9766 196.125 98.7817 196.174 98.563 196.174C98.4194 196.174 98.2873 196.15 98.1665 196.103C98.0457 196.055 97.9329 196.007 97.8281 195.959C97.7826 196.057 97.7176 196.133 97.6333 196.188C97.549 196.245 97.451 196.273 97.3394 196.273C97.3052 196.273 97.2664 196.268 97.2231 196.256C97.1821 196.245 97.1434 196.228 97.1069 196.205C97.0705 196.182 97.0397 196.153 97.0146 196.116C96.9919 196.082 96.9805 196.041 96.9805 195.993C96.9805 195.945 96.9919 195.904 97.0146 195.87C97.0374 195.834 97.0671 195.804 97.1035 195.781C97.1423 195.756 97.1855 195.738 97.2334 195.727C97.2835 195.713 97.3348 195.706 97.3872 195.706C97.4373 195.706 97.4863 195.711 97.5342 195.72C97.582 195.727 97.631 195.736 97.6812 195.747V195.686C97.6812 195.572 97.6755 195.443 97.6641 195.299C97.6527 195.153 97.647 194.988 97.647 194.804ZM97.9956 193.088C97.9569 193.252 97.9272 193.433 97.9067 193.631C97.8885 193.827 97.8737 194.022 97.8623 194.216C97.958 194.186 98.0378 194.155 98.1016 194.124C98.1654 194.089 98.2235 194.054 98.2759 194.018L98.2964 194.055C98.2554 194.094 98.1984 194.138 98.1255 194.188C98.0526 194.236 97.9648 194.283 97.8623 194.329C97.8577 194.413 97.8555 194.494 97.8555 194.571C97.8555 194.646 97.8555 194.719 97.8555 194.79C97.8555 194.888 97.8566 194.975 97.8589 195.05C97.8634 195.125 97.868 195.194 97.8726 195.258C97.8771 195.322 97.8805 195.384 97.8828 195.443C97.8874 195.502 97.8896 195.564 97.8896 195.627C97.8896 195.659 97.8885 195.69 97.8862 195.72C97.884 195.747 97.8805 195.773 97.876 195.798C97.9899 195.837 98.1016 195.875 98.2109 195.911C98.3226 195.948 98.4399 195.966 98.563 195.966C98.7658 195.966 98.9447 195.929 99.0996 195.856C99.2546 195.781 99.389 195.681 99.5029 195.556C99.6169 195.428 99.7114 195.281 99.7866 195.115C99.8618 194.946 99.9222 194.77 99.9678 194.585C100.013 194.398 100.045 194.208 100.063 194.014C100.084 193.82 100.094 193.634 100.094 193.454C100.094 193.089 100.046 192.751 99.9507 192.438C99.855 192.124 99.7137 191.852 99.5269 191.622C99.34 191.391 99.1099 191.211 98.8364 191.082C98.563 190.949 98.2474 190.883 97.8896 190.883C97.5524 190.883 97.2471 190.928 96.9736 191.017C96.7025 191.105 96.4701 191.235 96.2764 191.406C96.085 191.575 95.9368 191.783 95.832 192.032C95.7295 192.28 95.6782 192.565 95.6782 192.886C95.6782 193.084 95.7181 193.27 95.7979 193.443C95.8799 193.617 95.9881 193.767 96.1226 193.895C96.257 194.022 96.4108 194.122 96.584 194.195C96.7572 194.268 96.936 194.305 97.1206 194.305C97.3348 194.305 97.5125 194.291 97.6538 194.264C97.6652 194.102 97.68 193.93 97.6982 193.748C97.7188 193.563 97.7507 193.367 97.7939 193.16C97.7985 193.13 97.8031 193.099 97.8076 193.067C97.8122 193.035 97.8145 193.017 97.8145 193.013C97.8145 192.99 97.8133 192.967 97.811 192.944C97.811 192.919 97.8213 192.907 97.8418 192.907C97.8532 192.907 97.868 192.914 97.8862 192.927C97.9045 192.941 97.9215 192.958 97.9375 192.979C97.9535 192.997 97.9671 193.016 97.9785 193.037C97.9899 193.057 97.9956 193.074 97.9956 193.088ZM97.3804 196.113C97.4738 196.113 97.541 196.09 97.582 196.044C97.6253 195.999 97.6538 195.944 97.6675 195.88C97.6174 195.862 97.5695 195.847 97.5239 195.836C97.4806 195.825 97.4373 195.819 97.394 195.819C97.328 195.819 97.2676 195.83 97.2129 195.853C97.1605 195.876 97.1343 195.913 97.1343 195.966C97.1343 196.011 97.1582 196.047 97.2061 196.072C97.2562 196.099 97.3143 196.113 97.3804 196.113ZM101.072 195.785C101.126 195.785 101.18 195.773 101.232 195.75C101.285 195.725 101.332 195.69 101.373 195.645C101.414 195.597 101.445 195.539 101.468 195.47C101.493 195.402 101.506 195.322 101.506 195.231C101.506 195.156 101.497 195.085 101.479 195.019C101.46 194.951 101.433 194.891 101.396 194.841C101.362 194.791 101.317 194.751 101.26 194.722C101.205 194.692 101.14 194.677 101.065 194.677C101.013 194.677 100.96 194.688 100.908 194.708C100.855 194.726 100.809 194.757 100.768 194.8C100.727 194.841 100.694 194.895 100.668 194.961C100.643 195.025 100.631 195.102 100.631 195.193C100.631 195.266 100.64 195.338 100.658 195.409C100.676 195.477 100.703 195.54 100.737 195.597C100.773 195.654 100.819 195.699 100.874 195.733C100.931 195.768 100.997 195.785 101.072 195.785ZM100.952 195.959C100.802 195.959 100.679 195.91 100.583 195.812C100.487 195.712 100.439 195.567 100.439 195.378C100.439 195.25 100.463 195.133 100.511 195.026C100.559 194.917 100.621 194.823 100.696 194.746C100.773 194.666 100.859 194.604 100.952 194.561C101.046 194.518 101.137 194.496 101.226 194.496C101.369 194.496 101.484 194.545 101.571 194.643C101.657 194.741 101.701 194.886 101.701 195.077C101.701 195.205 101.678 195.322 101.632 195.429C101.589 195.536 101.531 195.63 101.458 195.709C101.387 195.787 101.308 195.848 101.219 195.894C101.13 195.937 101.041 195.959 100.952 195.959ZM103 194.312C103.029 194.318 103.044 194.338 103.044 194.37C103.044 194.379 103.041 194.391 103.034 194.407C103.029 194.421 103.022 194.436 103.013 194.452C103.006 194.465 102.998 194.478 102.989 194.489C102.98 194.498 102.972 194.503 102.965 194.503C102.954 194.503 102.94 194.5 102.924 194.493C102.908 194.484 102.886 194.474 102.856 194.465C102.826 194.454 102.788 194.445 102.74 194.438C102.692 194.429 102.629 194.424 102.552 194.424C102.442 194.424 102.351 194.445 102.278 194.486C102.205 194.527 102.169 194.584 102.169 194.657C102.169 194.709 102.191 194.754 102.234 194.79C102.279 194.824 102.332 194.852 102.391 194.872C102.453 194.893 102.514 194.907 102.576 194.917C102.639 194.926 102.688 194.93 102.723 194.93C102.748 194.93 102.764 194.935 102.771 194.944C102.78 194.951 102.784 194.958 102.784 194.964C102.784 194.983 102.776 194.994 102.76 194.999C102.747 195.001 102.728 195.005 102.706 195.012C102.646 195.033 102.586 195.059 102.524 195.091C102.463 195.12 102.406 195.157 102.354 195.2C102.303 195.241 102.262 195.288 102.23 195.34C102.199 195.393 102.183 195.45 102.183 195.511C102.183 195.614 102.224 195.699 102.306 195.768C102.39 195.834 102.507 195.867 102.658 195.867C102.829 195.867 102.971 195.842 103.085 195.792C103.199 195.739 103.292 195.679 103.365 195.61C103.44 195.542 103.499 195.474 103.54 195.405C103.581 195.335 103.611 195.281 103.632 195.245L103.652 195.258C103.614 195.37 103.563 195.474 103.502 195.569C103.443 195.665 103.37 195.748 103.283 195.819C103.199 195.887 103.1 195.942 102.986 195.983C102.872 196.022 102.742 196.041 102.596 196.041C102.507 196.041 102.425 196.03 102.35 196.007C102.275 195.986 102.21 195.957 102.155 195.918C102.101 195.879 102.058 195.831 102.029 195.774C101.999 195.717 101.984 195.653 101.984 195.58C101.984 195.495 102.004 195.422 102.042 195.361C102.081 195.299 102.126 195.249 102.176 195.21C102.226 195.169 102.275 195.139 102.323 195.118C102.373 195.095 102.408 195.079 102.429 195.07C102.358 195.059 102.295 195.04 102.241 195.012C102.195 194.987 102.153 194.953 102.114 194.91C102.076 194.864 102.056 194.803 102.056 194.725C102.056 194.654 102.073 194.591 102.107 194.534C102.142 194.474 102.187 194.425 102.244 194.387C102.303 194.348 102.371 194.318 102.446 194.298C102.523 194.275 102.605 194.264 102.692 194.264C102.742 194.264 102.792 194.267 102.842 194.274C102.895 194.281 102.947 194.293 103 194.312Z" fill="black"/>
<path id="Driver License Title" d="M111.53 156.3C111.53 156.13 111.507 156.005 111.46 155.925C111.413 155.842 111.32 155.8 111.18 155.8H111.08V155.7H112.39C113.037 155.7 113.525 155.843 113.855 156.13C114.188 156.417 114.355 156.817 114.355 157.33C114.355 157.66 114.285 157.952 114.145 158.205C114.005 158.455 113.797 158.65 113.52 158.79C113.247 158.93 112.913 159 112.52 159H111.53V156.3ZM112.505 158.825C112.752 158.825 112.973 158.765 113.17 158.645C113.37 158.522 113.527 158.35 113.64 158.13C113.753 157.907 113.81 157.647 113.81 157.35C113.81 157.06 113.753 156.803 113.64 156.58C113.53 156.357 113.375 156.183 113.175 156.06C112.975 155.937 112.748 155.875 112.495 155.875C112.335 155.875 112.168 155.902 111.995 155.955V158.76C112.182 158.803 112.352 158.825 112.505 158.825ZM114.974 157.25C114.974 157.08 114.951 156.955 114.904 156.875C114.858 156.792 114.764 156.75 114.624 156.75H114.574V156.65H114.974C115.101 156.65 115.196 156.668 115.259 156.705C115.326 156.738 115.373 156.795 115.399 156.875H115.424C115.484 156.798 115.564 156.733 115.664 156.68C115.768 156.627 115.888 156.6 116.024 156.6C116.158 156.6 116.258 156.625 116.324 156.675C116.381 156.718 116.439 156.793 116.499 156.9L116.299 157.05C116.263 157 116.209 156.963 116.139 156.94C116.069 156.913 115.989 156.9 115.899 156.9C115.799 156.9 115.708 156.923 115.624 156.97C115.541 157.013 115.474 157.073 115.424 157.15V159H114.974V157.25ZM117.187 156.35C117.11 156.35 117.043 156.318 116.987 156.255C116.933 156.192 116.907 156.117 116.907 156.03C116.907 155.96 116.927 155.905 116.967 155.865C117.01 155.825 117.067 155.805 117.137 155.805C117.213 155.805 117.278 155.837 117.332 155.9C117.388 155.963 117.417 156.038 117.417 156.125C117.417 156.195 117.395 156.25 117.352 156.29C117.312 156.33 117.257 156.35 117.187 156.35ZM116.997 157.25C116.997 157.08 116.973 156.955 116.927 156.875C116.88 156.792 116.787 156.75 116.647 156.75H116.547V156.65H116.997C117.12 156.65 117.212 156.667 117.272 156.7C117.335 156.73 117.38 156.787 117.407 156.87C117.433 156.953 117.447 157.08 117.447 157.25V159H116.997V157.25ZM118.287 157.225C118.207 157.038 118.13 156.908 118.057 156.835C117.984 156.758 117.887 156.717 117.767 156.71V156.61C117.784 156.61 117.807 156.608 117.837 156.605C117.87 156.602 117.904 156.6 117.937 156.6C118.114 156.6 118.274 156.645 118.417 156.735C118.56 156.822 118.684 156.985 118.787 157.225L119.237 158.3L119.937 156.65H120.187L119.162 159.05H119.062L118.287 157.225ZM121.513 159.05C121.287 159.05 121.095 158.997 120.938 158.89C120.782 158.78 120.663 158.633 120.583 158.45C120.503 158.263 120.463 158.055 120.463 157.825C120.463 157.598 120.503 157.392 120.583 157.205C120.663 157.018 120.778 156.872 120.928 156.765C121.082 156.655 121.26 156.6 121.463 156.6C121.8 156.6 122.05 156.695 122.213 156.885C122.38 157.072 122.463 157.343 122.463 157.7L122.453 157.9H120.938C120.938 158.18 120.998 158.408 121.118 158.585C121.238 158.762 121.403 158.85 121.613 158.85C121.77 158.85 121.902 158.817 122.008 158.75C122.118 158.683 122.22 158.583 122.313 158.45L122.413 158.525C122.303 158.708 122.175 158.842 122.028 158.925C121.882 159.008 121.71 159.05 121.513 159.05ZM121.988 157.7C121.988 157.407 121.945 157.183 121.858 157.03C121.772 156.877 121.64 156.8 121.463 156.8C121.363 156.8 121.273 156.84 121.193 156.92C121.113 156.997 121.05 157.103 121.003 157.24C120.96 157.377 120.938 157.53 120.938 157.7H121.988ZM123.08 157.25C123.08 157.08 123.056 156.955 123.01 156.875C122.963 156.792 122.87 156.75 122.73 156.75H122.68V156.65H123.08C123.206 156.65 123.301 156.668 123.365 156.705C123.431 156.738 123.478 156.795 123.505 156.875H123.53C123.59 156.798 123.67 156.733 123.77 156.68C123.873 156.627 123.993 156.6 124.13 156.6C124.263 156.6 124.363 156.625 124.43 156.675C124.486 156.718 124.545 156.793 124.605 156.9L124.405 157.05C124.368 157 124.315 156.963 124.245 156.94C124.175 156.913 124.095 156.9 124.005 156.9C123.905 156.9 123.813 156.923 123.73 156.97C123.646 157.013 123.58 157.073 123.53 157.15V159H123.08V157.25ZM126.447 156.3C126.447 156.13 126.424 156.005 126.377 155.925C126.33 155.842 126.237 155.8 126.097 155.8H125.997V155.7H126.447C126.57 155.7 126.662 155.717 126.722 155.75C126.785 155.78 126.83 155.837 126.857 155.92C126.884 156.003 126.897 156.13 126.897 156.3V158.8H128.672V159H126.447V156.3ZM129.33 156.35C129.253 156.35 129.187 156.318 129.13 156.255C129.077 156.192 129.05 156.117 129.05 156.03C129.05 155.96 129.07 155.905 129.11 155.865C129.153 155.825 129.21 155.805 129.28 155.805C129.357 155.805 129.422 155.837 129.475 155.9C129.532 155.963 129.56 156.038 129.56 156.125C129.56 156.195 129.538 156.25 129.495 156.29C129.455 156.33 129.4 156.35 129.33 156.35ZM129.14 157.25C129.14 157.08 129.117 156.955 129.07 156.875C129.023 156.792 128.93 156.75 128.79 156.75H128.69V156.65H129.14C129.263 156.65 129.355 156.667 129.415 156.7C129.478 156.73 129.523 156.787 129.55 156.87C129.577 156.953 129.59 157.08 129.59 157.25V159H129.14V157.25ZM131.261 159.05C131.021 159.05 130.817 158.997 130.651 158.89C130.487 158.78 130.364 158.633 130.281 158.45C130.201 158.263 130.161 158.055 130.161 157.825C130.161 157.595 130.201 157.388 130.281 157.205C130.364 157.018 130.487 156.872 130.651 156.765C130.817 156.655 131.021 156.6 131.261 156.6C131.627 156.6 131.869 156.658 131.986 156.775C132.042 156.832 132.077 156.902 132.091 156.985C132.104 157.065 132.111 157.212 132.111 157.425H132.011C131.997 157.218 131.932 157.063 131.816 156.96C131.699 156.853 131.547 156.8 131.361 156.8C131.121 156.8 130.939 156.895 130.816 157.085C130.696 157.275 130.636 157.522 130.636 157.825C130.636 158.128 130.696 158.375 130.816 158.565C130.939 158.755 131.121 158.85 131.361 158.85C131.531 158.85 131.671 158.818 131.781 158.755C131.891 158.688 131.992 158.587 132.086 158.45L132.186 158.525C132.076 158.712 131.946 158.847 131.796 158.93C131.646 159.01 131.467 159.05 131.261 159.05ZM133.628 159.05C133.401 159.05 133.209 158.997 133.053 158.89C132.896 158.78 132.778 158.633 132.698 158.45C132.618 158.263 132.578 158.055 132.578 157.825C132.578 157.598 132.618 157.392 132.698 157.205C132.778 157.018 132.893 156.872 133.043 156.765C133.196 156.655 133.374 156.6 133.578 156.6C133.914 156.6 134.164 156.695 134.328 156.885C134.494 157.072 134.578 157.343 134.578 157.7L134.568 157.9H133.053C133.053 158.18 133.113 158.408 133.233 158.585C133.353 158.762 133.518 158.85 133.728 158.85C133.884 158.85 134.016 158.817 134.123 158.75C134.233 158.683 134.334 158.583 134.428 158.45L134.528 158.525C134.418 158.708 134.289 158.842 134.143 158.925C133.996 159.008 133.824 159.05 133.628 159.05ZM134.103 157.7C134.103 157.407 134.059 157.183 133.973 157.03C133.886 156.877 133.754 156.8 133.578 156.8C133.478 156.8 133.388 156.84 133.308 156.92C133.228 156.997 133.164 157.103 133.118 157.24C133.074 157.377 133.053 157.53 133.053 157.7H134.103ZM135.229 157.25C135.229 157.08 135.206 156.955 135.159 156.875C135.112 156.792 135.019 156.75 134.879 156.75H134.779V156.65H135.229C135.352 156.65 135.446 156.667 135.509 156.7C135.576 156.733 135.624 156.783 135.654 156.85H135.679C135.749 156.78 135.839 156.722 135.949 156.675C136.062 156.625 136.189 156.6 136.329 156.6C136.579 156.6 136.782 156.667 136.939 156.8C137.099 156.933 137.179 157.167 137.179 157.5V159H136.729V157.5C136.729 157.267 136.676 157.097 136.569 156.99C136.466 156.88 136.336 156.825 136.179 156.825C136.002 156.825 135.836 156.913 135.679 157.09V159H135.229V157.25ZM138.659 159.05C138.275 159.05 138.017 158.983 137.884 158.85C137.827 158.793 137.792 158.73 137.779 158.66C137.765 158.587 137.759 158.475 137.759 158.325H137.859C137.889 158.492 137.96 158.622 138.074 158.715C138.19 158.805 138.352 158.85 138.559 158.85C138.742 158.85 138.879 158.818 138.969 158.755C139.062 158.692 139.109 158.607 139.109 158.5C139.109 158.403 139.072 158.32 138.999 158.25C138.929 158.18 138.815 158.113 138.659 158.05L138.359 157.925C138.159 157.845 138.009 157.752 137.909 157.645C137.809 157.538 137.759 157.407 137.759 157.25C137.759 157.047 137.835 156.888 137.989 156.775C138.142 156.658 138.34 156.6 138.584 156.6C138.95 156.6 139.2 156.667 139.334 156.8C139.39 156.857 139.425 156.92 139.439 156.99C139.452 157.06 139.459 157.172 139.459 157.325H139.359C139.332 157.158 139.262 157.03 139.149 156.94C139.035 156.847 138.88 156.8 138.684 156.8C138.527 156.8 138.404 156.833 138.314 156.9C138.227 156.963 138.184 157.047 138.184 157.15C138.184 157.323 138.317 157.465 138.584 157.575L138.884 157.7C139.11 157.793 139.275 157.893 139.379 158C139.482 158.103 139.534 158.237 139.534 158.4C139.534 158.603 139.452 158.763 139.289 158.88C139.125 158.993 138.915 159.05 138.659 159.05ZM141.02 159.05C140.793 159.05 140.602 158.997 140.445 158.89C140.288 158.78 140.17 158.633 140.09 158.45C140.01 158.263 139.97 158.055 139.97 157.825C139.97 157.598 140.01 157.392 140.09 157.205C140.17 157.018 140.285 156.872 140.435 156.765C140.588 156.655 140.767 156.6 140.97 156.6C141.307 156.6 141.557 156.695 141.72 156.885C141.887 157.072 141.97 157.343 141.97 157.7L141.96 157.9H140.445C140.445 158.18 140.505 158.408 140.625 158.585C140.745 158.762 140.91 158.85 141.12 158.85C141.277 158.85 141.408 158.817 141.515 158.75C141.625 158.683 141.727 158.583 141.82 158.45L141.92 158.525C141.81 158.708 141.682 158.842 141.535 158.925C141.388 159.008 141.217 159.05 141.02 159.05ZM141.495 157.7C141.495 157.407 141.452 157.183 141.365 157.03C141.278 156.877 141.147 156.8 140.97 156.8C140.87 156.8 140.78 156.84 140.7 156.92C140.62 156.997 140.557 157.103 140.51 157.24C140.467 157.377 140.445 157.53 140.445 157.7H141.495Z" fill="black"/>
<g id="id info">
<line id="Line 1" x1="111" y1="165.5" x2="136" y2="165.5" stroke="black"/>
<line id="Line 4" x1="111" y1="179.5" x2="125" y2="179.5" stroke="black"/>
<line id="Line 5" x1="111" y1="183.5" x2="125" y2="183.5" stroke="black"/>
<line id="Line 6" x1="111" y1="188.5" x2="123" y2="188.5" stroke="black"/>
<line id="Line 9" x1="111" y1="193.5" x2="120" y2="193.5" stroke="black"/>
<line id="Line 10" x1="123" y1="193.5" x2="132" y2="193.5" stroke="black"/>
<line id="Line 11" x1="134" y1="193.5" x2="143" y2="193.5" stroke="black"/>
<line id="Line 7" x1="133" y1="188.5" x2="143" y2="188.5" stroke="black"/>
<line id="Line 8" x1="133" y1="183.5" x2="143" y2="183.5" stroke="black"/>
<line id="Line 2" x1="111" y1="170.5" x2="130" y2="170.5" stroke="black"/>
<line id="Line 3" x1="111" y1="175.5" x2="130" y2="175.5" stroke="black"/>
</g>
</g>
<g id="NotarizedGroup">
<rect id="Doc Signed" x="158" y="152" width="58" height="76" fill="white"/>
<g id="stamp">
<rect id="Rectangle 1" x="170.575" y="181.248" width="52.7016" height="29.5702" rx="1.5" transform="rotate(-9.47127 170.575 181.248)" fill="white" stroke="black" stroke-dasharray="2 2"/>
<rect id="Rectangle 2" x="172.575" y="182.706" width="49.4086" height="26.0643" rx="1.5" transform="rotate(-9.47127 172.575 182.706)" fill="white" stroke="black"/>
<path id="Notary Public" d="M183.364 187.349L183.166 187.38L182.746 184.713C182.721 184.555 182.667 184.439 182.584 184.364C182.505 184.289 182.385 184.264 182.223 184.289L182.174 184.297L182.158 184.198L182.479 184.147C182.631 184.124 182.763 184.128 182.876 184.161C182.989 184.194 183.095 184.253 183.193 184.339L185.26 186.215L184.875 183.77L185.072 183.739L185.594 187.048L185.495 187.064L182.955 184.756L183.364 187.349ZM187.287 186.781C187.063 186.817 186.86 186.794 186.679 186.715C186.497 186.632 186.349 186.506 186.234 186.335C186.12 186.164 186.045 185.966 186.009 185.742C185.974 185.519 185.985 185.308 186.041 185.11C186.098 184.912 186.2 184.747 186.348 184.616C186.496 184.481 186.681 184.396 186.905 184.361C187.129 184.326 187.332 184.35 187.514 184.432C187.695 184.512 187.843 184.637 187.958 184.808C188.072 184.979 188.147 185.176 188.183 185.4C188.218 185.624 188.207 185.835 188.151 186.033C188.094 186.231 187.992 186.397 187.845 186.531C187.697 186.663 187.511 186.746 187.287 186.781ZM187.256 186.584C187.377 186.565 187.477 186.503 187.556 186.4C187.637 186.296 187.69 186.163 187.715 186C187.744 185.837 187.743 185.662 187.713 185.474C187.684 185.286 187.63 185.119 187.553 184.973C187.48 184.826 187.388 184.715 187.278 184.641C187.172 184.567 187.058 184.539 186.936 184.559C186.815 184.578 186.713 184.639 186.631 184.743C186.553 184.847 186.5 184.98 186.472 185.143C186.447 185.306 186.449 185.481 186.479 185.668C186.508 185.856 186.56 186.024 186.634 186.17C186.711 186.317 186.802 186.427 186.909 186.502C187.018 186.576 187.134 186.603 187.256 186.584ZM189.639 186.411C189.455 186.44 189.301 186.41 189.179 186.321C189.057 186.232 188.979 186.079 188.945 185.862L188.704 184.331L188.358 184.385L188.327 184.188L188.673 184.133L188.603 183.689L188.803 183.353L189 183.322L189.117 184.063L189.71 183.97L189.741 184.167L189.148 184.261L189.39 185.792C189.436 186.088 189.575 186.218 189.805 186.182C189.884 186.169 189.949 186.151 189.999 186.126C190.052 186.101 190.106 186.067 190.16 186.025L190.225 186.116C190.158 186.184 190.082 186.245 189.996 186.299C189.909 186.349 189.79 186.387 189.639 186.411ZM191.175 186.169C191.069 186.185 190.959 186.181 190.843 186.155C190.727 186.126 190.622 186.067 190.527 185.977C190.435 185.887 190.376 185.758 190.349 185.59C190.31 185.34 190.397 185.144 190.611 185.002C190.828 184.86 191.124 184.759 191.5 184.7L191.648 184.677C191.597 184.354 191.518 184.14 191.41 184.036C191.303 183.931 191.165 183.892 190.997 183.919C190.849 183.942 190.735 183.992 190.656 184.069C190.577 184.145 190.532 184.264 190.52 184.424L190.298 184.459C190.28 184.347 190.273 184.259 190.276 184.194C190.279 184.126 190.304 184.06 190.351 183.995C190.401 183.927 190.491 183.869 190.622 183.821C190.756 183.769 190.903 183.731 191.065 183.706C191.331 183.664 191.554 183.703 191.731 183.823C191.908 183.941 192.029 184.202 192.093 184.607L192.303 185.94L192.056 185.979L191.848 185.784L191.823 185.788C191.776 185.873 191.699 185.951 191.592 186.022C191.485 186.093 191.346 186.142 191.175 186.169ZM191.362 185.911C191.47 185.894 191.557 185.854 191.621 185.789C191.685 185.725 191.74 185.643 191.784 185.541L191.679 184.874L191.531 184.898C191.287 184.936 191.102 185.012 190.975 185.127C190.847 185.238 190.795 185.368 190.819 185.516C190.842 185.667 190.905 185.777 191.007 185.846C191.112 185.91 191.23 185.932 191.362 185.911ZM192.759 184.097C192.732 183.929 192.69 183.809 192.631 183.737C192.572 183.662 192.473 183.636 192.335 183.657L192.286 183.665L192.27 183.566L192.665 183.504C192.79 183.484 192.887 183.488 192.955 183.514C193.026 183.537 193.081 183.585 193.12 183.66L193.145 183.656C193.192 183.571 193.261 183.495 193.351 183.426C193.445 183.358 193.56 183.312 193.695 183.291C193.826 183.27 193.929 183.28 194.003 183.319C194.065 183.353 194.135 183.418 194.21 183.514L194.036 183.693C193.992 183.649 193.934 183.621 193.861 183.609C193.788 183.594 193.707 183.593 193.618 183.607C193.519 183.623 193.432 183.66 193.357 183.719C193.281 183.775 193.225 183.844 193.187 183.928L193.475 185.755L193.031 185.825L192.759 184.097ZM195.25 186.336C195.411 186.311 195.537 186.252 195.627 186.16C195.721 186.071 195.79 185.922 195.835 185.713L195.891 185.425L194.797 183.624C194.667 183.401 194.466 183.298 194.191 183.314L194.176 183.215L194.596 183.149C194.882 183.104 195.101 183.205 195.251 183.451L196.029 184.73L196.382 182.918L196.629 182.879L196.082 185.674C196.027 185.949 195.95 186.142 195.849 186.252C195.748 186.362 195.606 186.432 195.421 186.461L195.273 186.484L195.25 186.336ZM198.474 182.234C198.447 182.066 198.405 181.947 198.346 181.875C198.287 181.8 198.189 181.773 198.05 181.795L197.952 181.81L197.936 181.712L199.22 181.509C199.536 181.459 199.832 181.482 200.107 181.577C200.381 181.672 200.549 181.914 200.611 182.303C200.651 182.559 200.616 182.767 200.506 182.926C200.397 183.085 200.263 183.201 200.106 183.273C199.951 183.345 199.807 183.391 199.672 183.412L199.129 183.498L199.339 184.831L198.894 184.901L198.474 182.234ZM199.472 183.267C199.577 183.25 199.685 183.206 199.795 183.135C199.905 183.06 199.992 182.957 200.055 182.825C200.122 182.693 200.141 182.537 200.113 182.356C200.084 182.175 200.018 182.032 199.914 181.926C199.813 181.821 199.699 181.751 199.572 181.717C199.444 181.68 199.328 181.669 199.223 181.686C199.107 181.704 198.987 181.74 198.86 181.794L199.094 183.276C199.23 183.288 199.357 183.285 199.472 183.267ZM202.338 184.409C202.091 184.448 201.878 184.414 201.699 184.308C201.523 184.2 201.41 183.982 201.358 183.653L201.218 182.764C201.191 182.596 201.149 182.476 201.09 182.404C201.031 182.329 200.932 182.302 200.794 182.324L200.745 182.332L200.729 182.233L201.124 182.171C201.246 182.152 201.339 182.154 201.404 182.178C201.471 182.197 201.524 182.246 201.564 182.324C201.603 182.403 201.636 182.526 201.662 182.694L201.802 183.583C201.839 183.813 201.916 183.975 202.036 184.067C202.158 184.156 202.296 184.188 202.451 184.164C202.625 184.136 202.776 184.023 202.903 183.824L202.606 181.937L203.051 181.867L203.416 184.189L203.169 184.228L202.965 184.057L202.941 184.061C202.883 184.141 202.801 184.215 202.697 184.282C202.596 184.345 202.476 184.388 202.338 184.409ZM205.247 183.951C205.08 183.977 204.937 183.973 204.82 183.937C204.703 183.902 204.609 183.851 204.538 183.784L204.513 183.788L204.375 184.038L204.128 184.077L203.708 181.409C203.682 181.242 203.639 181.122 203.581 181.05C203.522 180.975 203.423 180.948 203.285 180.97L203.186 180.986L203.17 180.887L203.615 180.817C203.737 180.798 203.83 180.8 203.894 180.823C203.961 180.843 204.015 180.892 204.054 180.97C204.093 181.048 204.126 181.171 204.153 181.339L204.223 181.784C204.311 181.723 204.401 181.672 204.492 181.63C204.583 181.589 204.692 181.558 204.817 181.538C205.123 181.49 205.373 181.567 205.567 181.77C205.764 181.971 205.89 182.248 205.946 182.601C206.001 182.95 205.969 183.252 205.851 183.506C205.732 183.758 205.531 183.906 205.247 183.951ZM205.068 183.777C205.256 183.747 205.383 183.633 205.449 183.433C205.515 183.23 205.524 182.978 205.477 182.675C205.428 182.368 205.339 182.131 205.208 181.963C205.08 181.794 204.91 181.726 204.7 181.759C204.631 181.77 204.562 181.795 204.494 181.832C204.425 181.87 204.345 181.92 204.254 181.981L204.503 183.562C204.576 183.642 204.657 183.703 204.745 183.747C204.835 183.786 204.943 183.796 205.068 183.777ZM206.313 180.999C206.287 180.831 206.244 180.711 206.186 180.639C206.127 180.564 206.028 180.538 205.89 180.56L205.791 180.575L205.775 180.476L206.22 180.406C206.342 180.387 206.435 180.389 206.499 180.413C206.566 180.433 206.62 180.482 206.659 180.56C206.698 180.638 206.731 180.761 206.758 180.929L207.178 183.596L206.733 183.666L206.313 180.999ZM207.759 180.822C207.683 180.834 207.613 180.813 207.547 180.759C207.484 180.705 207.446 180.635 207.433 180.549C207.422 180.48 207.433 180.423 207.466 180.377C207.503 180.331 207.556 180.302 207.625 180.291C207.701 180.279 207.77 180.3 207.832 180.355C207.898 180.408 207.938 180.478 207.951 180.564C207.962 180.633 207.949 180.69 207.913 180.737C207.879 180.782 207.828 180.811 207.759 180.822ZM207.712 181.74C207.685 181.572 207.643 181.453 207.584 181.381C207.525 181.306 207.426 181.279 207.288 181.301L207.189 181.316L207.174 181.218L207.618 181.148C207.74 181.128 207.833 181.131 207.898 181.154C207.965 181.174 208.018 181.223 208.057 181.301C208.097 181.379 208.13 181.502 208.156 181.67L208.428 183.399L207.984 183.469L207.712 181.74ZM210.086 183.188C209.849 183.226 209.64 183.205 209.459 183.125C209.28 183.042 209.136 182.916 209.025 182.748C208.917 182.576 208.845 182.377 208.809 182.149C208.773 181.922 208.781 181.712 208.831 181.518C208.884 181.321 208.983 181.157 209.128 181.026C209.276 180.891 209.468 180.805 209.705 180.768C210.067 180.711 210.315 180.731 210.448 180.828C210.513 180.875 210.559 180.939 210.585 181.019C210.61 181.096 210.64 181.24 210.673 181.451L210.574 181.466C210.529 181.264 210.441 181.121 210.309 181.037C210.177 180.95 210.019 180.921 209.835 180.95C209.598 180.987 209.433 181.11 209.341 181.316C209.252 181.523 209.231 181.776 209.278 182.075C209.325 182.375 209.423 182.609 209.571 182.778C209.723 182.947 209.917 183.012 210.154 182.975C210.322 182.949 210.455 182.896 210.554 182.816C210.652 182.733 210.737 182.617 210.808 182.467L210.918 182.526C210.839 182.727 210.731 182.881 210.596 182.986C210.46 183.089 210.29 183.156 210.086 183.188Z" fill="black"/>
<line id="Line 13" x1="180.918" y1="203.978" x2="219.655" y2="197.507" stroke="black"/>
<line id="Line 14" x1="179.918" y1="197.978" x2="218.655" y2="191.507" stroke="black"/>
<line id="Line 15" x1="178.918" y1="191.978" x2="217.655" y2="185.507" stroke="black"/>
</g>
<g id="notarized signature">
<path id="signature_2" d="M169.28 219.314C169.292 219.385 169.312 219.457 169.342 219.53C169.374 219.603 169.416 219.669 169.468 219.728C169.521 219.79 169.586 219.84 169.663 219.878C169.743 219.917 169.836 219.937 169.943 219.937C170.107 219.937 170.244 219.886 170.354 219.786C170.465 219.686 170.556 219.549 170.627 219.376C170.7 219.203 170.757 219.001 170.798 218.771C170.839 218.539 170.872 218.29 170.897 218.026C170.813 218.056 170.724 218.079 170.63 218.098C170.537 218.116 170.439 218.125 170.336 218.125C170.145 218.125 169.967 218.099 169.803 218.046C169.639 217.994 169.498 217.917 169.379 217.814C169.261 217.711 169.167 217.586 169.099 217.438C169.033 217.288 169 217.116 169 216.922C169 216.703 169.035 216.506 169.106 216.331C169.177 216.153 169.27 215.993 169.386 215.852C169.505 215.708 169.64 215.582 169.793 215.473C169.948 215.361 170.109 215.261 170.275 215.172C170.441 215.083 170.608 215.004 170.774 214.936C170.943 214.868 171.1 214.804 171.246 214.745C171.316 214.537 171.407 214.372 171.519 214.249C171.631 214.126 171.775 214.064 171.953 214.064C171.971 214.064 171.993 214.067 172.018 214.071C172.043 214.076 172.067 214.086 172.09 214.102C172.115 214.116 172.135 214.137 172.151 214.167C172.17 214.194 172.179 214.231 172.179 214.276C172.179 214.352 172.157 214.419 172.114 214.478C172.07 214.537 172.011 214.592 171.936 214.642C171.861 214.69 171.772 214.736 171.669 214.779C171.567 214.822 171.456 214.864 171.338 214.905C171.311 215.092 171.29 215.301 171.276 215.531C171.263 215.761 171.25 216.002 171.239 216.255C171.23 216.506 171.218 216.764 171.205 217.028C171.191 217.292 171.173 217.551 171.15 217.804C171.293 217.74 171.413 217.666 171.509 217.582C171.604 217.497 171.692 217.42 171.772 217.349L171.82 217.397C171.792 217.424 171.757 217.458 171.714 217.5C171.673 217.541 171.623 217.585 171.563 217.633C171.507 217.681 171.442 217.731 171.369 217.783C171.298 217.833 171.221 217.88 171.136 217.923C171.104 218.22 171.06 218.5 171.003 218.764C170.948 219.026 170.872 219.256 170.774 219.455C170.678 219.653 170.557 219.81 170.412 219.926C170.266 220.042 170.087 220.101 169.875 220.101C169.777 220.101 169.679 220.083 169.581 220.049C169.483 220.015 169.395 219.966 169.318 219.902C169.24 219.841 169.177 219.764 169.126 219.673C169.079 219.584 169.055 219.484 169.055 219.373C169.055 219.345 169.062 219.32 169.075 219.297C169.089 219.277 169.106 219.259 169.126 219.243C169.149 219.229 169.173 219.218 169.198 219.208C169.226 219.199 169.253 219.195 169.28 219.195C169.299 219.195 169.308 219.205 169.308 219.226C169.308 219.237 169.303 219.25 169.294 219.263C169.285 219.279 169.28 219.296 169.28 219.314ZM170.422 217.944C170.604 217.944 170.767 217.924 170.911 217.886C170.931 217.637 170.947 217.381 170.958 217.117C170.972 216.852 170.987 216.593 171.003 216.337C171.021 216.082 171.044 215.837 171.071 215.603C171.099 215.366 171.136 215.149 171.184 214.953C171.041 215.001 170.892 215.052 170.74 215.107C170.587 215.159 170.438 215.22 170.292 215.288C170.146 215.354 170.007 215.431 169.875 215.517C169.745 215.604 169.631 215.704 169.533 215.818C169.435 215.932 169.358 216.063 169.301 216.211C169.244 216.357 169.215 216.523 169.215 216.71C169.215 216.888 169.234 217.042 169.27 217.171C169.306 217.301 169.355 217.412 169.417 217.503C169.481 217.594 169.553 217.669 169.632 217.729C169.714 217.785 169.8 217.83 169.889 217.862C169.98 217.894 170.071 217.915 170.162 217.927C170.253 217.938 170.34 217.944 170.422 217.944ZM171.878 214.225C171.826 214.225 171.774 214.234 171.724 214.252C171.674 214.268 171.626 214.295 171.581 214.331C171.537 214.368 171.497 214.415 171.461 214.475C171.427 214.532 171.399 214.602 171.379 214.687C171.463 214.652 171.541 214.619 171.611 214.587C171.684 214.556 171.746 214.524 171.796 214.492C171.848 214.46 171.888 214.428 171.916 214.396C171.945 214.364 171.96 214.331 171.96 214.297C171.96 214.283 171.953 214.268 171.939 214.252C171.926 214.234 171.905 214.225 171.878 214.225ZM172.428 218.785C172.483 218.785 172.536 218.773 172.589 218.75C172.641 218.725 172.688 218.69 172.729 218.645C172.77 218.597 172.802 218.539 172.825 218.47C172.85 218.402 172.862 218.322 172.862 218.231C172.862 218.156 172.853 218.085 172.835 218.019C172.817 217.951 172.789 217.891 172.753 217.841C172.719 217.791 172.673 217.751 172.616 217.722C172.562 217.692 172.497 217.677 172.421 217.677C172.369 217.677 172.317 217.688 172.264 217.708C172.212 217.726 172.165 217.757 172.124 217.8C172.083 217.841 172.05 217.895 172.025 217.961C172 218.025 171.987 218.102 171.987 218.193C171.987 218.266 171.996 218.338 172.015 218.409C172.033 218.477 172.059 218.54 172.093 218.597C172.13 218.654 172.175 218.699 172.23 218.733C172.287 218.768 172.353 218.785 172.428 218.785ZM172.309 218.959C172.158 218.959 172.035 218.91 171.939 218.812C171.844 218.712 171.796 218.567 171.796 218.378C171.796 218.25 171.82 218.133 171.868 218.026C171.916 217.917 171.977 217.823 172.052 217.746C172.13 217.666 172.215 217.604 172.309 217.561C172.402 217.518 172.493 217.496 172.582 217.496C172.726 217.496 172.841 217.545 172.927 217.643C173.014 217.741 173.057 217.886 173.057 218.077C173.057 218.205 173.034 218.322 172.989 218.429C172.945 218.536 172.887 218.63 172.814 218.709C172.744 218.787 172.664 218.848 172.575 218.894C172.486 218.937 172.397 218.959 172.309 218.959ZM173.413 218.48C173.413 218.421 173.416 218.326 173.423 218.193C173.43 218.059 173.438 217.889 173.447 217.684C173.456 217.479 173.464 217.24 173.471 216.966C173.478 216.693 173.481 216.386 173.481 216.047C173.481 215.881 173.48 215.721 173.478 215.568C173.478 215.413 173.476 215.277 173.474 215.158C173.472 215.037 173.47 214.941 173.467 214.868C173.467 214.792 173.467 214.751 173.467 214.745C173.467 214.726 173.47 214.71 173.474 214.697C173.481 214.683 173.493 214.671 173.512 214.659C173.525 214.652 173.541 214.643 173.56 214.632C173.58 214.618 173.601 214.611 173.621 214.611C173.646 214.611 173.666 214.618 173.679 214.632C173.693 214.643 173.703 214.665 173.71 214.697C173.719 214.726 173.726 214.779 173.73 214.854C173.735 214.927 173.737 215.029 173.737 215.162C173.74 215.292 173.741 215.46 173.741 215.667C173.741 215.859 173.736 216.057 173.727 216.262C173.718 216.467 173.707 216.669 173.693 216.867C173.681 217.065 173.668 217.256 173.652 217.438C173.638 217.62 173.625 217.784 173.611 217.93C173.599 218.076 173.589 218.198 173.58 218.296C173.571 218.392 173.566 218.453 173.566 218.48C173.566 218.492 173.566 218.506 173.566 218.521C173.566 218.537 173.568 218.553 173.57 218.569C173.572 218.583 173.576 218.596 173.58 218.607C173.585 218.616 173.591 218.621 173.601 218.621C173.623 218.621 173.647 218.584 173.672 218.511C173.697 218.438 173.729 218.34 173.768 218.217C173.793 218.14 173.822 218.061 173.854 217.981C173.885 217.902 173.918 217.83 173.953 217.766C173.989 217.7 174.026 217.646 174.062 217.605C174.101 217.564 174.138 217.544 174.175 217.544C174.202 217.544 174.225 217.552 174.243 217.568C174.264 217.584 174.281 217.604 174.294 217.629C174.308 217.652 174.318 217.677 174.325 217.705C174.332 217.732 174.338 217.758 174.342 217.783C174.345 217.811 174.348 217.852 174.353 217.906C174.357 217.961 174.362 218.024 174.366 218.094C174.371 218.165 174.375 218.239 174.38 218.316C174.387 218.394 174.394 218.468 174.4 218.539C174.412 218.666 174.443 218.758 174.493 218.815C174.543 218.872 174.608 218.901 174.688 218.901C174.719 218.901 174.744 218.899 174.763 218.894C174.781 218.889 174.798 218.887 174.814 218.887C174.825 218.887 174.828 218.899 174.821 218.921C174.816 218.931 174.797 218.946 174.763 218.969C174.729 218.99 174.668 219 174.582 219C174.509 219 174.447 218.989 174.397 218.966C174.349 218.941 174.31 218.903 174.281 218.853C174.253 218.801 174.232 218.733 174.216 218.651C174.202 218.567 174.193 218.467 174.188 218.351C174.184 218.285 174.179 218.216 174.175 218.146C174.173 218.073 174.167 218.007 174.158 217.947C174.151 217.888 174.141 217.84 174.127 217.804C174.113 217.765 174.094 217.746 174.069 217.746C174.048 217.746 174.026 217.77 174 217.817C173.975 217.863 173.95 217.918 173.925 217.981C173.903 218.043 173.881 218.106 173.86 218.169C173.84 218.231 173.824 218.279 173.812 218.313C173.803 218.34 173.79 218.386 173.771 218.45C173.753 218.514 173.732 218.578 173.707 218.645C173.681 218.711 173.654 218.769 173.625 218.819C173.595 218.869 173.564 218.894 173.532 218.894C173.505 218.894 173.483 218.879 173.467 218.85C173.451 218.818 173.439 218.78 173.43 218.737C173.423 218.691 173.418 218.646 173.416 218.6C173.414 218.552 173.413 218.512 173.413 218.48ZM175.05 217.476C175.061 217.476 175.07 217.485 175.077 217.503C175.084 217.521 175.089 217.543 175.091 217.568C175.095 217.593 175.098 217.62 175.098 217.65C175.098 217.677 175.098 217.702 175.098 217.725C175.098 217.784 175.095 217.846 175.091 217.91C175.089 217.971 175.085 218.032 175.081 218.091C175.078 218.148 175.076 218.201 175.074 218.251C175.071 218.299 175.07 218.339 175.07 218.371C175.07 218.43 175.073 218.478 175.077 218.515C175.082 218.549 175.093 218.566 175.111 218.566C175.123 218.566 175.138 218.551 175.156 218.521C175.174 218.492 175.193 218.457 175.214 218.416C175.237 218.372 175.258 218.327 175.279 218.279C175.299 218.231 175.319 218.189 175.337 218.152C175.36 218.104 175.385 218.052 175.412 217.995C175.442 217.936 175.472 217.881 175.504 217.831C175.536 217.779 175.569 217.735 175.604 217.701C175.64 217.667 175.678 217.65 175.716 217.65C175.741 217.65 175.763 217.657 175.781 217.67C175.802 217.684 175.819 217.702 175.833 217.725C175.846 217.746 175.856 217.768 175.863 217.793C175.872 217.816 175.879 217.838 175.884 217.858C175.891 217.911 175.897 217.994 175.904 218.108C175.913 218.22 175.925 218.339 175.938 218.467C175.95 218.594 175.981 218.688 176.031 218.747C176.081 218.804 176.146 218.833 176.226 218.833C176.257 218.833 176.283 218.83 176.301 218.826C176.321 218.821 176.338 218.819 176.352 218.819C176.363 218.819 176.366 218.83 176.359 218.853C176.357 218.858 176.351 218.864 176.342 218.874C176.335 218.88 176.322 218.888 176.304 218.897C176.286 218.907 176.261 218.915 176.229 218.921C176.199 218.928 176.163 218.932 176.12 218.932C176.047 218.932 175.986 218.92 175.938 218.897C175.891 218.872 175.852 218.834 175.822 218.781C175.793 218.729 175.771 218.662 175.757 218.58C175.744 218.495 175.735 218.395 175.73 218.279C175.725 218.224 175.721 218.172 175.716 218.122C175.714 218.069 175.708 218.024 175.699 217.985C175.692 217.944 175.682 217.912 175.668 217.889C175.655 217.864 175.635 217.852 175.61 217.852C175.59 217.852 175.565 217.872 175.535 217.913C175.508 217.954 175.48 218.003 175.453 218.06C175.426 218.115 175.4 218.172 175.375 218.231C175.352 218.29 175.332 218.337 175.316 218.371C175.266 218.478 175.224 218.566 175.19 218.634C175.158 218.703 175.123 218.769 175.084 218.833C175.073 218.851 175.06 218.866 175.046 218.877C175.035 218.888 175.02 218.894 175.002 218.894C174.975 218.894 174.953 218.871 174.937 218.826C174.921 218.78 174.909 218.728 174.899 218.668C174.893 218.609 174.888 218.55 174.886 218.491C174.883 218.429 174.882 218.382 174.882 218.351C174.882 218.314 174.882 218.27 174.882 218.217C174.885 218.165 174.887 218.114 174.889 218.063C174.891 218.013 174.893 217.968 174.893 217.927C174.895 217.886 174.896 217.858 174.896 217.845C174.896 217.831 174.895 217.813 174.893 217.79C174.893 217.765 174.893 217.741 174.893 217.718C174.893 217.693 174.891 217.672 174.889 217.653C174.889 217.633 174.889 217.619 174.889 217.612C174.889 217.594 174.894 217.579 174.903 217.568C174.914 217.554 174.926 217.544 174.937 217.537C174.948 217.53 174.967 217.519 174.992 217.503C175.017 217.485 175.036 217.476 175.05 217.476ZM179.647 217.804C179.647 217.744 179.647 217.682 179.647 217.616C179.647 217.547 179.649 217.477 179.654 217.404C179.576 217.429 179.492 217.448 179.401 217.462C179.312 217.476 179.219 217.482 179.121 217.482C178.849 217.482 178.612 217.438 178.41 217.349C178.209 217.26 178.042 217.142 177.907 216.994C177.773 216.843 177.671 216.67 177.603 216.474C177.537 216.278 177.504 216.072 177.504 215.855C177.504 215.632 177.537 215.425 177.603 215.233C177.669 215.04 177.759 214.863 177.873 214.704C177.989 214.544 178.126 214.403 178.283 214.28C178.443 214.154 178.614 214.05 178.796 213.965C178.978 213.879 179.168 213.814 179.367 213.771C179.567 213.725 179.768 213.702 179.968 213.702C180.324 213.702 180.646 213.757 180.936 213.866C181.225 213.976 181.472 214.136 181.677 214.348C181.882 214.558 182.041 214.818 182.152 215.127C182.264 215.435 182.32 215.788 182.32 216.187C182.32 216.365 182.306 216.562 182.279 216.778C182.254 216.995 182.213 217.214 182.156 217.435C182.099 217.656 182.025 217.871 181.934 218.081C181.842 218.288 181.731 218.474 181.599 218.638C181.469 218.799 181.318 218.929 181.147 219.027C180.977 219.125 180.782 219.174 180.563 219.174C180.419 219.174 180.287 219.15 180.167 219.103C180.046 219.055 179.933 219.007 179.828 218.959C179.783 219.057 179.718 219.133 179.633 219.188C179.549 219.245 179.451 219.273 179.339 219.273C179.305 219.273 179.266 219.268 179.223 219.256C179.182 219.245 179.143 219.228 179.107 219.205C179.07 219.182 179.04 219.153 179.015 219.116C178.992 219.082 178.98 219.041 178.98 218.993C178.98 218.945 178.992 218.904 179.015 218.87C179.037 218.834 179.067 218.804 179.104 218.781C179.142 218.756 179.186 218.738 179.233 218.727C179.284 218.713 179.335 218.706 179.387 218.706C179.437 218.706 179.486 218.711 179.534 218.72C179.582 218.727 179.631 218.736 179.681 218.747V218.686C179.681 218.572 179.675 218.443 179.664 218.299C179.653 218.153 179.647 217.988 179.647 217.804ZM179.996 216.088C179.957 216.252 179.927 216.433 179.907 216.631C179.889 216.827 179.874 217.022 179.862 217.216C179.958 217.186 180.038 217.155 180.102 217.124C180.165 217.089 180.223 217.054 180.276 217.018L180.296 217.055C180.255 217.094 180.198 217.138 180.125 217.188C180.053 217.236 179.965 217.283 179.862 217.329C179.858 217.413 179.855 217.494 179.855 217.571C179.855 217.646 179.855 217.719 179.855 217.79C179.855 217.888 179.857 217.975 179.859 218.05C179.863 218.125 179.868 218.194 179.873 218.258C179.877 218.322 179.881 218.384 179.883 218.443C179.887 218.502 179.89 218.564 179.89 218.627C179.89 218.659 179.889 218.69 179.886 218.72C179.884 218.747 179.881 218.773 179.876 218.798C179.99 218.837 180.102 218.875 180.211 218.911C180.323 218.948 180.44 218.966 180.563 218.966C180.766 218.966 180.945 218.929 181.1 218.856C181.255 218.781 181.389 218.681 181.503 218.556C181.617 218.428 181.711 218.281 181.787 218.115C181.862 217.946 181.922 217.77 181.968 217.585C182.013 217.398 182.045 217.208 182.063 217.014C182.084 216.82 182.094 216.634 182.094 216.454C182.094 216.089 182.046 215.751 181.951 215.438C181.855 215.124 181.714 214.852 181.527 214.622C181.34 214.391 181.11 214.211 180.836 214.082C180.563 213.949 180.247 213.883 179.89 213.883C179.552 213.883 179.247 213.928 178.974 214.017C178.702 214.105 178.47 214.235 178.276 214.406C178.085 214.575 177.937 214.783 177.832 215.032C177.729 215.28 177.678 215.565 177.678 215.886C177.678 216.084 177.718 216.27 177.798 216.443C177.88 216.617 177.988 216.767 178.123 216.895C178.257 217.022 178.411 217.122 178.584 217.195C178.757 217.268 178.936 217.305 179.121 217.305C179.335 217.305 179.513 217.291 179.654 217.264C179.665 217.102 179.68 216.93 179.698 216.748C179.719 216.563 179.751 216.367 179.794 216.16C179.799 216.13 179.803 216.099 179.808 216.067C179.812 216.035 179.814 216.017 179.814 216.013C179.814 215.99 179.813 215.967 179.811 215.944C179.811 215.919 179.821 215.907 179.842 215.907C179.853 215.907 179.868 215.914 179.886 215.927C179.904 215.941 179.922 215.958 179.938 215.979C179.953 215.997 179.967 216.016 179.979 216.037C179.99 216.057 179.996 216.074 179.996 216.088ZM179.38 219.113C179.474 219.113 179.541 219.09 179.582 219.044C179.625 218.999 179.654 218.944 179.667 218.88C179.617 218.862 179.569 218.847 179.524 218.836C179.481 218.825 179.437 218.819 179.394 218.819C179.328 218.819 179.268 218.83 179.213 218.853C179.16 218.876 179.134 218.913 179.134 218.966C179.134 219.011 179.158 219.047 179.206 219.072C179.256 219.099 179.314 219.113 179.38 219.113ZM183.072 218.785C183.126 218.785 183.18 218.773 183.232 218.75C183.285 218.725 183.332 218.69 183.373 218.645C183.414 218.597 183.445 218.539 183.468 218.47C183.493 218.402 183.506 218.322 183.506 218.231C183.506 218.156 183.497 218.085 183.479 218.019C183.46 217.951 183.433 217.891 183.396 217.841C183.362 217.791 183.317 217.751 183.26 217.722C183.205 217.692 183.14 217.677 183.065 217.677C183.013 217.677 182.96 217.688 182.908 217.708C182.855 217.726 182.809 217.757 182.768 217.8C182.727 217.841 182.694 217.895 182.668 217.961C182.643 218.025 182.631 218.102 182.631 218.193C182.631 218.266 182.64 218.338 182.658 218.409C182.676 218.477 182.703 218.54 182.737 218.597C182.773 218.654 182.819 218.699 182.874 218.733C182.931 218.768 182.997 218.785 183.072 218.785ZM182.952 218.959C182.802 218.959 182.679 218.91 182.583 218.812C182.487 218.712 182.439 218.567 182.439 218.378C182.439 218.25 182.463 218.133 182.511 218.026C182.559 217.917 182.621 217.823 182.696 217.746C182.773 217.666 182.859 217.604 182.952 217.561C183.046 217.518 183.137 217.496 183.226 217.496C183.369 217.496 183.484 217.545 183.571 217.643C183.657 217.741 183.701 217.886 183.701 218.077C183.701 218.205 183.678 218.322 183.632 218.429C183.589 218.536 183.531 218.63 183.458 218.709C183.387 218.787 183.308 218.848 183.219 218.894C183.13 218.937 183.041 218.959 182.952 218.959ZM185 217.312C185.029 217.318 185.044 217.338 185.044 217.37C185.044 217.379 185.041 217.391 185.034 217.407C185.029 217.421 185.022 217.436 185.013 217.452C185.006 217.465 184.998 217.478 184.989 217.489C184.98 217.498 184.972 217.503 184.965 217.503C184.954 217.503 184.94 217.5 184.924 217.493C184.908 217.484 184.886 217.474 184.856 217.465C184.826 217.454 184.788 217.445 184.74 217.438C184.692 217.429 184.629 217.424 184.552 217.424C184.442 217.424 184.351 217.445 184.278 217.486C184.205 217.527 184.169 217.584 184.169 217.657C184.169 217.709 184.191 217.754 184.234 217.79C184.279 217.824 184.332 217.852 184.391 217.872C184.453 217.893 184.514 217.907 184.576 217.917C184.639 217.926 184.688 217.93 184.723 217.93C184.748 217.93 184.764 217.935 184.771 217.944C184.78 217.951 184.784 217.958 184.784 217.964C184.784 217.983 184.776 217.994 184.76 217.999C184.747 218.001 184.728 218.005 184.706 218.012C184.646 218.033 184.586 218.059 184.524 218.091C184.463 218.12 184.406 218.157 184.354 218.2C184.303 218.241 184.262 218.288 184.23 218.34C184.199 218.393 184.183 218.45 184.183 218.511C184.183 218.614 184.224 218.699 184.306 218.768C184.39 218.834 184.507 218.867 184.658 218.867C184.829 218.867 184.971 218.842 185.085 218.792C185.199 218.739 185.292 218.679 185.365 218.61C185.44 218.542 185.499 218.474 185.54 218.405C185.581 218.335 185.611 218.281 185.632 218.245L185.652 218.258C185.614 218.37 185.563 218.474 185.502 218.569C185.443 218.665 185.37 218.748 185.283 218.819C185.199 218.887 185.1 218.942 184.986 218.983C184.872 219.022 184.742 219.041 184.596 219.041C184.507 219.041 184.425 219.03 184.35 219.007C184.275 218.986 184.21 218.957 184.155 218.918C184.101 218.879 184.058 218.831 184.029 218.774C183.999 218.717 183.984 218.653 183.984 218.58C183.984 218.495 184.004 218.422 184.042 218.361C184.081 218.299 184.126 218.249 184.176 218.21C184.226 218.169 184.275 218.139 184.323 218.118C184.373 218.095 184.408 218.079 184.429 218.07C184.358 218.059 184.295 218.04 184.241 218.012C184.195 217.987 184.153 217.953 184.114 217.91C184.076 217.864 184.056 217.803 184.056 217.725C184.056 217.654 184.073 217.591 184.107 217.534C184.142 217.474 184.187 217.425 184.244 217.387C184.303 217.348 184.371 217.318 184.446 217.298C184.523 217.275 184.605 217.264 184.692 217.264C184.742 217.264 184.792 217.267 184.842 217.274C184.895 217.281 184.947 217.293 185 217.312Z" fill="black"/>
<line id="Line 16" x1="167" y1="221.5" x2="189" y2="221.5" stroke="black"/>
<line id="Line 17" x1="166.354" y1="216.354" x2="163.354" y2="219.354" stroke="#FF0000"/>
<line id="Line 18" x1="166.646" y1="219.354" x2="163.646" y2="216.354" stroke="#FF0000"/>
</g>
</g>
</g>
</svg>
